<?xml version="1.0" encoding="utf-8"?>
<!-- Svg Vector Icons : http://www.onlinewebfonts.com/icon -->
<!DOCTYPE svg PUBLIC "-//W3C//DTD SVG 1.1//EN" "http://www.w3.org/Graphics/SVG/1.1/DTD/svg11.dtd">
<svg version="1.1" xmlns="http://www.w3.org/2000/svg" x="0px" y="0px" viewBox="0 0 256 256" enable-background="new 0 0 256 256" xml:space="preserve">
<metadata>www.onlinewebfonts.com/icon</metadata>
<g><g><g><path fill="#ffffff" d="M97.9,11.3c-6.7,1.7-14.7,4.6-21,7.5c-6.6,3.1-16.4,8.9-16.4,9.8c0,0.3,1,6.7,2.1,14.1l2.2,13.5l-4.2,4.2l-4.2,4.2l-13.5-2.2c-7.4-1.1-13.8-2.1-14.1-2.1c-0.9,0-6.7,9.8-9.8,16.5c-3.9,8.5-8.8,23.6-8.8,27.4c0,0.9,3,3.3,11.3,9.4l11.3,8.2v6v6l-11.3,8.2c-8.7,6.3-11.3,8.4-11.3,9.4c0.1,3.3,3.8,15.6,7.4,24c2.5,5.9,8,15.9,10,18.4l1.2,1.5l13.9-2.2l13.9-2.2l4.2,4.2l4.2,4.2l-2.2,13.7c-1.2,7.5-2,14-1.9,14.4c0.8,2.1,19.2,11.3,29.1,14.6c6.3,2.1,15.1,4.3,15.5,3.8c0.1-0.1,3.6-4.9,7.8-10.7c4.2-5.8,7.9-10.8,8.2-11.1c0.4-0.4,2.8-0.7,6.6-0.8l5.9-0.1l8.2,11.2c4.5,6.2,8.5,11.3,9,11.4c2.4,0.5,19.4-4.9,28.1-9c5.5-2.6,15.5-8.3,16-9.1c0.2-0.2-0.7-6.7-1.9-14.3l-2.2-13.8l4.3-4.2l4.2-4.3l13.8,2.2c7.6,1.2,14.1,2.1,14.3,1.9c0.9-0.5,6.6-10.5,9.1-16c4.1-8.7,9.6-25.6,9-28.1c-0.1-0.4-5.2-4.5-11.4-9l-11.2-8.2l0.1-5.9c0.1-3.8,0.3-6.1,0.8-6.6c0.4-0.3,5.4-4,11.1-8.2c5.8-4.2,10.6-7.7,10.7-7.8c0.5-0.4-1.7-9.2-3.8-15.5c-3.3-9.9-12.5-28.3-14.6-29.1c-0.4-0.2-6.8,0.7-14.4,1.9l-13.7,2.2l-4.2-4.2l-4.2-4.2l2.2-13.9l2.2-13.9l-1.5-1.2c-2.5-2-12.6-7.5-18.4-10c-8.4-3.5-20.7-7.3-24-7.4c-0.9,0-3,2.6-9.4,11.3L134,32.6h-6h-6l-8.2-11.3C104.3,8.4,105.6,9.3,97.9,11.3z M140.1,77.7c19,4.9,33.1,19.4,38,38.5c1.4,5.5,1.2,18.4-0.3,23.9c-5.2,19.2-19.5,33.2-38.6,38c-5.1,1.3-17.9,1.3-23,0c-9.2-2.3-17.4-6.8-24.1-13.2c-17.5-16.7-21-43.4-8.3-64.1c3.7-6,11.1-13.4,17-17c5.2-3.1,11.8-5.7,17.7-6.8C124.1,75.8,134.7,76.2,140.1,77.7z"/></g></g></g>
</svg>
